# xmcd CD database file
#
# Track frame offsets:
#	150
#	35201
#	69642
#	106132
#	142134
#	177047
#
# Disc length: 2837 seconds
#
# Revision: 0
# Processed by: cddbd v1.4PL0 Copyright (c) Steve Scherf et al.
# Submitted via: CDex 1.51
#
DISCID=550b1306
DTITLE=Gomer Edwin Evans - Sleepytime
DYEAR=2003
DGENRE=New Age
TTITLE0=Gomer Edwin Evans - Sleepytime - 01 - Little Train
TTITLE1=Gomer Edwin Evans - Sleepytime - 02 - Red Baloon
TTITLE2=Gomer Edwin Evans - Sleepytime - 03 - Carousel
TTITLE3=Gomer Edwin Evans - Sleepytime - 04 - Sleepytime
TTITLE4=Gomer Edwin Evans - Sleepytime - 05 - Sailing
TTITLE5=Gomer Edwin Evans - Sleepytime - 06 - Storyland
EXTD=YEAR: 2003
EXTT0=
EXTT1=
EXTT2=
EXTT3=
EXTT4=
EXTT5=
PLAYORDER=
